<svg version="1.1" viewBox="0.0 0.0 565.1469816272966 470.4409448818898" fill="none" stroke="none" stroke-linecap="square" stroke-miterlimit="10" xmlns:xlink="http://www.w3.org/1999/xlink" xmlns="http://www.w3.org/2000/svg"><clipPath id="p.0"><path d="m0 0l565.147 0l0 470.44095l-565.147 0l0 -470.44095z" clip-rule="nonzero"/></clipPath><g clip-path="url(#p.0)"><path fill="#000000" fill-opacity="0.0" d="m0 0l565.147 0l0 470.44095l-565.147 0z" fill-rule="evenodd"/><path fill="#000000" fill-opacity="0.0" d="m0 225.48557l563.71655 -0.4409485" fill-rule="evenodd"/><path stroke="#000000" stroke-width="3.0" stroke-linejoin="round" stroke-linecap="butt" d="m0 225.48557l563.71655 -0.4409485" fill-rule="evenodd"/><path fill="#000000" fill-opacity="0.0" d="m512.53546 1.136483l-466.74017 467.84253" fill-rule="evenodd"/><path stroke="#000000" stroke-width="3.0" stroke-linejoin="round" stroke-linecap="butt" d="m512.53546 1.136483l-466.74017 467.84253" fill-rule="evenodd"/><path fill="#000000" fill-opacity="0.0" d="m57.464565 0l462.70865 469.73227" fill-rule="evenodd"/><path stroke="#000000" stroke-width="3.0" stroke-linejoin="round" stroke-linecap="butt" d="m57.464565 0l462.70865 469.73227" fill-rule="evenodd"/><path fill="#000000" fill-opacity="0.0" d="m358.91602 167.31233l59.212585 0l0 58.173233l-59.212585 0z" fill-rule="evenodd"/><path fill="#000000" d="m391.54575 207.03233l-2.8125 0l0 -17.921875q-1.015625 0.96875 -2.671875 1.9375q-1.640625 0.96875 -2.953125 1.453125l0 -2.71875q2.359375 -1.109375 4.125 -2.6875q1.765625 -1.578125 2.5 -3.0625l1.8125 0l0 23.0z" fill-rule="nonzero"/><path fill="#000000" fill-opacity="0.0" d="m252.91339 134.66405l59.212585 0l0 58.173218l-59.212585 0z" fill-rule="evenodd"/><path fill="#000000" d="m289.73062 171.68092l0 2.703125l-15.140625 0q-0.03125 -1.015625 0.328125 -1.953125q0.578125 -1.546875 1.84375 -3.046875q1.28125 -1.5 3.6875 -3.46875q3.734375 -3.0625 5.046875 -4.84375q1.3125 -1.796875 1.3125 -3.390625q0 -1.671875 -1.203125 -2.8125q-1.1875 -1.15625 -3.109375 -1.15625q-2.03125 0 -3.25 1.21875q-1.21875 1.21875 -1.234375 3.375l-2.890625 -0.296875q0.296875 -3.234375 2.234375 -4.921875q1.9375 -1.703125 5.203125 -1.703125q3.296875 0 5.21875 1.828125q1.921875 1.828125 1.921875 4.53125q0 1.375 -0.5625 2.703125q-0.5625 1.328125 -1.875 2.796875q-1.296875 1.46875 -4.328125 4.03125q-2.53125 2.125 -3.25 2.890625q-0.71875 0.75 -1.1875 1.515625l11.234375 0z" fill-rule="nonzero"/><path fill="#000000" fill-opacity="0.0" d="m146.91077 167.31233l59.212585 0l0 58.173233l-59.212585 0z" fill-rule="evenodd"/><path fill="#000000" d="m168.96237 200.98546l2.8125 -0.375q0.484375 2.390625 1.640625 3.453125q1.171875 1.046875 2.84375 1.046875q1.984375 0 3.34375 -1.375q1.375 -1.375 1.375 -3.40625q0 -1.9375 -1.265625 -3.1875q-1.265625 -1.265625 -3.21875 -1.265625q-0.796875 0 -1.984375 0.3125l0.3125 -2.46875q0.28125 0.03125 0.453125 0.03125q1.796875 0 3.234375 -0.9375q1.4375 -0.9375 1.4375 -2.890625q0 -1.546875 -1.046875 -2.5625q-1.046875 -1.015625 -2.703125 -1.015625q-1.640625 0 -2.734375 1.03125q-1.09375 1.03125 -1.40625 3.09375l-2.8125 -0.5q0.515625 -2.828125 2.34375 -4.375q1.828125 -1.5625 4.546875 -1.5625q1.875 0 3.453125 0.8125q1.578125 0.796875 2.40625 2.1875q0.84375 1.390625 0.84375 2.953125q0 1.484375 -0.796875 2.703125q-0.796875 1.21875 -2.359375 1.9375q2.03125 0.46875 3.15625 1.953125q1.125 1.46875 1.125 3.6875q0 3.0 -2.1875 5.09375q-2.1875 2.078125 -5.53125 2.078125q-3.015625 0 -5.015625 -1.796875q-1.984375 -1.796875 -2.265625 -4.65625z" fill-rule="nonzero"/><path fill="#000000" fill-opacity="0.0" d="m146.91077 229.04724l59.212585 0l0 58.173218l-59.212585 0z" fill-rule="evenodd"/><path fill="#000000" d="m177.96237 268.76724l0 -5.484375l-9.9375 0l0 -2.578125l10.453125 -14.84375l2.296875 0l0 14.84375l3.09375 0l0 2.578125l-3.09375 0l0 5.484375l-2.8125 0zm0 -8.0625l0 -10.328125l-7.171875 10.328125l7.171875 0z" fill-rule="nonzero"/><path fill="#000000" fill-opacity="0.0" d="m252.91339 258.13385l59.212585 0l0 58.17325l-59.212585 0z" fill-rule="evenodd"/><path fill="#000000" d="m274.94937 291.85385l2.953125 -0.25q0.328125 2.15625 1.515625 3.25q1.203125 1.078125 2.890625 1.078125q2.03125 0 3.4375 -1.53125q1.40625 -1.53125 1.40625 -4.0625q0 -2.40625 -1.359375 -3.796875q-1.34375 -1.390625 -3.53125 -1.390625q-1.359375 0 -2.453125 0.625q-1.09375 0.609375 -1.71875 1.59375l-2.640625 -0.34375l2.21875 -11.765625l11.390625 0l0 2.6875l-9.140625 0l-1.234375 6.15625q2.0625 -1.4375 4.328125 -1.4375q3.0 0 5.0625 2.078125q2.0625 2.078125 2.0625 5.34375q0 3.109375 -1.8125 5.375q-2.203125 2.78125 -6.015625 2.78125q-3.125 0 -5.109375 -1.75q-1.96875 -1.75 -2.25 -4.640625z" fill-rule="nonzero"/><path fill="#000000" fill-opacity="0.0" d="m358.91602 225.48557l59.212585 0l0 58.173218l-59.212585 0z" fill-rule="evenodd"/><path fill="#000000" d="m395.54575 247.90869l-2.796875 0.21875q-0.375 -1.65625 -1.0625 -2.40625q-1.140625 -1.203125 -2.8125 -1.203125q-1.34375 0 -2.359375 0.75q-1.328125 0.96875 -2.09375 2.828125q-0.765625 1.859375 -0.796875 5.296875q1.015625 -1.546875 2.484375 -2.296875q1.46875 -0.75 3.078125 -0.75q2.8125 0 4.78125 2.078125q1.984375 2.0625 1.984375 5.34375q0 2.15625 -0.9375 4.015625q-0.921875 1.84375 -2.546875 2.828125q-1.625 0.984375 -3.6875 0.984375q-3.515625 0 -5.734375 -2.578125q-2.21875 -2.59375 -2.21875 -8.53125q0 -6.640625 2.453125 -9.65625q2.140625 -2.625 5.765625 -2.625q2.703125 0 4.421875 1.515625q1.734375 1.515625 2.078125 4.1875zm-11.484375 9.875q0 1.453125 0.609375 2.78125q0.625 1.328125 1.734375 2.03125q1.109375 0.6875 2.328125 0.6875q1.78125 0 3.0625 -1.4375q1.28125 -1.4375 1.28125 -3.90625q0 -2.375 -1.265625 -3.734375q-1.265625 -1.375 -3.1875 -1.375q-1.90625 0 -3.234375 1.375q-1.328125 1.359375 -1.328125 3.578125z" fill-rule="nonzero"/><path fill="#ff00ff" d="m312.12598 67.62205l-11.947357 4.9357986l0 -9.871601zm-8.673553 -24.320805l-5.442169 13.3055725l-6.008606 -6.9801865zm-20.93274 -10.072895l4.2487793 13.879288l-8.497559 0zm-20.935486 10.072895l11.453522 6.325386l-6.008606 6.9801865zm-8.670807 24.320805l11.947357 -4.9358025l0 9.871601zm8.670807 24.31762l5.444916 -13.302383l6.008606 6.980179zm20.935486 10.07608l-4.2487793 -13.879288l8.497559 0zm20.93274 -10.07608l-11.450775 -6.3222046l6.008606 -6.980179zm-35.7359 -24.31762c0 -9.497559 6.627594 -17.19685 14.803162 -17.19685c8.175568 0 14.803162 7.699291 14.803162 17.19685c0 9.497559 -6.627594 17.196854 -14.803162 17.196854c-8.175568 0 -14.803162 -7.699295 -14.803162 -17.196854z" fill-rule="evenodd"/><path stroke="#000000" stroke-width="1.0" stroke-linejoin="round" stroke-linecap="butt" d="m312.12598 67.62205l-11.947357 4.9357986l0 -9.871601zm-8.673553 -24.320805l-5.442169 13.3055725l-6.008606 -6.9801865zm-20.93274 -10.072895l4.2487793 13.879288l-8.497559 0zm-20.935486 10.072895l11.453522 6.325386l-6.008606 6.9801865zm-8.670807 24.320805l11.947357 -4.9358025l0 9.871601zm8.670807 24.31762l5.444916 -13.302383l6.008606 6.980179zm20.935486 10.07608l-4.2487793 -13.879288l8.497559 0zm20.93274 -10.07608l-11.450775 -6.3222046l6.008606 -6.980179zm-35.7359 -24.31762c0 -9.497559 6.627594 -17.19685 14.803162 -17.19685c8.175568 0 14.803162 7.699291 14.803162 17.19685c0 9.497559 -6.627594 17.196854 -14.803162 17.196854c-8.175568 0 -14.803162 -7.699295 -14.803162 -17.196854z" fill-rule="evenodd"/><path fill="#00ff00" d="m118.42519 140.07349l-11.947372 4.9358063l0 -9.871597zm-8.673546 -24.3208l-5.442192 13.3055725l-6.008583 -6.9801865zm-20.932747 -10.072899l4.248764 13.879288l-8.497536 0zm-20.935493 10.072899l11.453514 6.325386l-6.008583 6.9801865zm-8.670811 24.3208l11.947376 -4.935791l0 9.871597zm8.670811 24.317627l5.444931 -13.302383l6.008583 6.980179zm20.935493 10.07608l-4.2487717 -13.879288l8.497536 0zm20.932747 -10.07608l-11.450775 -6.3222046l6.008583 -6.980179zm-35.7359 -24.317627c0 -9.497559 6.627594 -17.196846 14.803154 -17.196846c8.175552 0 14.803146 7.6992874 14.803146 17.196846c0 9.497559 -6.627594 17.196854 -14.803146 17.196854c-8.17556 0 -14.803154 -7.699295 -14.803154 -17.196854z" fill-rule="evenodd"/><path stroke="#000000" stroke-width="1.0" stroke-linejoin="round" stroke-linecap="butt" d="m118.42519 140.07349l-11.947372 4.9358063l0 -9.871597zm-8.673546 -24.3208l-5.442192 13.3055725l-6.008583 -6.9801865zm-20.932747 -10.072899l4.248764 13.879288l-8.497536 0zm-20.935493 10.072899l11.453514 6.325386l-6.008583 6.9801865zm-8.670811 24.3208l11.947376 -4.935791l0 9.871597zm8.670811 24.317627l5.444931 -13.302383l6.008583 6.980179zm20.935493 10.07608l-4.2487717 -13.879288l8.497536 0zm20.932747 -10.07608l-11.450775 -6.3222046l6.008583 -6.980179zm-35.7359 -24.317627c0 -9.497559 6.627594 -17.196846 14.803154 -17.196846c8.175552 0 14.803146 7.6992874 14.803146 17.196846c0 9.497559 -6.627594 17.196854 -14.803146 17.196854c-8.17556 0 -14.803154 -7.699295 -14.803154 -17.196854z" fill-rule="evenodd"/><path fill="#0000ff" d="m118.42519 310.89764l-11.947372 4.935791l0 -9.871613zm-8.673546 -24.3208l-5.442192 13.3055725l-6.008583 -6.980194zm-20.932747 -10.0729065l4.248764 13.879303l-8.497536 0zm-20.935493 10.0729065l11.453514 6.3253784l-6.008583 6.980194zm-8.670811 24.3208l11.947376 -4.9358215l0 9.871613zm8.670811 24.317627l5.444931 -13.302399l6.008583 6.980194zm20.935493 10.07608l-4.2487717 -13.879303l8.497536 0zm20.932747 -10.07608l-11.450775 -6.3222046l6.008583 -6.980194zm-35.7359 -24.317627c0 -9.497559 6.627594 -17.196869 14.803154 -17.196869c8.175552 0 14.803146 7.6993103 14.803146 17.196869c0 9.497559 -6.627594 17.196838 -14.803146 17.196838c-8.17556 0 -14.803154 -7.69928 -14.803154 -17.196838z" fill-rule="evenodd"/><path stroke="#000000" stroke-width="1.0" stroke-linejoin="round" stroke-linecap="butt" d="m118.42519 310.89764l-11.947372 4.935791l0 -9.871613zm-8.673546 -24.3208l-5.442192 13.3055725l-6.008583 -6.980194zm-20.932747 -10.0729065l4.248764 13.879303l-8.497536 0zm-20.935493 10.0729065l11.453514 6.3253784l-6.008583 6.980194zm-8.670811 24.3208l11.947376 -4.9358215l0 9.871613zm8.670811 24.317627l5.444931 -13.302399l6.008583 6.980194zm20.935493 10.07608l-4.2487717 -13.879303l8.497536 0zm20.932747 -10.07608l-11.450775 -6.3222046l6.008583 -6.980194zm-35.7359 -24.317627c0 -9.497559 6.627594 -17.196869 14.803154 -17.196869c8.175552 0 14.803146 7.6993103 14.803146 17.196869c0 9.497559 -6.627594 17.196838 -14.803146 17.196838c-8.17556 0 -14.803154 -7.69928 -14.803154 -17.196838z" fill-rule="evenodd"/><path fill="#00ffff" d="m312.12598 383.3491l-11.947357 4.935791l0 -9.871613zm-8.673553 -24.3208l-5.442169 13.3055725l-6.008606 -6.980194zm-20.93274 -10.0729065l4.2487793 13.879272l-8.497559 0zm-20.935486 10.0729065l11.453522 6.3253784l-6.008606 6.980194zm-8.670807 24.3208l11.947357 -4.9358215l0 9.871613zm8.670807 24.317596l5.444916 -13.302368l6.008606 6.980194zm20.935486 10.07608l-4.2487793 -13.879272l8.497559 0zm20.93274 -10.07608l-11.450775 -6.322174l6.008606 -6.980194zm-35.7359 -24.317596c0 -9.497559 6.627594 -17.196869 14.803162 -17.196869c8.175568 0 14.803162 7.6993103 14.803162 17.196869c0 9.497559 -6.627594 17.196838 -14.803162 17.196838c-8.175568 0 -14.803162 -7.69928 -14.803162 -17.196838z" fill-rule="evenodd"/><path stroke="#000000" stroke-width="1.0" stroke-linejoin="round" stroke-linecap="butt" d="m312.12598 383.3491l-11.947357 4.935791l0 -9.871613zm-8.673553 -24.3208l-5.442169 13.3055725l-6.008606 -6.980194zm-20.93274 -10.0729065l4.2487793 13.879272l-8.497559 0zm-20.935486 10.0729065l11.453522 6.3253784l-6.008606 6.980194zm-8.670807 24.3208l11.947357 -4.9358215l0 9.871613zm8.670807 24.317596l5.444916 -13.302368l6.008606 6.980194zm20.935486 10.07608l-4.2487793 -13.879272l8.497559 0zm20.93274 -10.07608l-11.450775 -6.322174l6.008606 -6.980194zm-35.7359 -24.317596c0 -9.497559 6.627594 -17.196869 14.803162 -17.196869c8.175568 0 14.803162 7.6993103 14.803162 17.196869c0 9.497559 -6.627594 17.196838 -14.803162 17.196838c-8.175568 0 -14.803162 -7.69928 -14.803162 -17.196838z" fill-rule="evenodd"/><path fill="#e69138" d="m505.82678 310.89764l-11.947388 4.935791l0 -9.871613zm-8.673553 -24.3208l-5.4421997 13.3055725l-6.0085754 -6.980194zm-20.93277 -10.0729065l4.2487793 13.879303l-8.497528 0zm-20.935486 10.0729065l11.453522 6.3253784l-6.0085754 6.980194zm-8.670807 24.3208l11.947388 -4.9358215l0 9.871613zm8.670807 24.317627l5.4449463 -13.302399l6.0085754 6.980194zm20.935486 10.07608l-4.248749 -13.879303l8.497528 0zm20.93277 -10.07608l-11.450775 -6.3222046l6.0085754 -6.980194zm-35.7359 -24.317627c0 -9.497559 6.627594 -17.196869 14.803131 -17.196869c8.175568 0 14.803162 7.6993103 14.803162 17.196869c0 9.497559 -6.627594 17.196838 -14.803162 17.196838c-8.175537 0 -14.803131 -7.69928 -14.803131 -17.196838z" fill-rule="evenodd"/><path stroke="#000000" stroke-width="1.0" stroke-linejoin="round" stroke-linecap="butt" d="m505.82678 310.89764l-11.947388 4.935791l0 -9.871613zm-8.673553 -24.3208l-5.4421997 13.3055725l-6.0085754 -6.980194zm-20.93277 -10.0729065l4.2487793 13.879303l-8.497528 0zm-20.935486 10.0729065l11.453522 6.3253784l-6.0085754 6.980194zm-8.670807 24.3208l11.947388 -4.9358215l0 9.871613zm8.670807 24.317627l5.4449463 -13.302399l6.0085754 6.980194zm20.935486 10.07608l-4.248749 -13.879303l8.497528 0zm20.93277 -10.07608l-11.450775 -6.3222046l6.0085754 -6.980194zm-35.7359 -24.317627c0 -9.497559 6.627594 -17.196869 14.803131 -17.196869c8.175568 0 14.803162 7.6993103 14.803162 17.196869c0 9.497559 -6.627594 17.196838 -14.803162 17.196838c-8.175537 0 -14.803131 -7.69928 -14.803131 -17.196838z" fill-rule="evenodd"/><path fill="#ff0000" d="m505.82678 140.07349l-11.947388 4.9358063l0 -9.871597zm-8.673553 -24.3208l-5.4421997 13.3055725l-6.0085754 -6.9801865zm-20.93277 -10.072899l4.2487793 13.879288l-8.497528 0zm-20.935486 10.072899l11.453522 6.325386l-6.0085754 6.9801865zm-8.670807 24.3208l11.947388 -4.935791l0 9.871597zm8.670807 24.317627l5.4449463 -13.302383l6.0085754 6.980179zm20.935486 10.07608l-4.248749 -13.879288l8.497528 0zm20.93277 -10.07608l-11.450775 -6.3222046l6.0085754 -6.980179zm-35.7359 -24.317627c0 -9.497559 6.627594 -17.196846 14.803131 -17.196846c8.175568 0 14.803162 7.6992874 14.803162 17.196846c0 9.497559 -6.627594 17.196854 -14.803162 17.196854c-8.175537 0 -14.803131 -7.699295 -14.803131 -17.196854z" fill-rule="evenodd"/><path stroke="#000000" stroke-width="1.0" stroke-linejoin="round" stroke-linecap="butt" d="m505.82678 140.07349l-11.947388 4.9358063l0 -9.871597zm-8.673553 -24.3208l-5.4421997 13.3055725l-6.0085754 -6.9801865zm-20.93277 -10.072899l4.2487793 13.879288l-8.497528 0zm-20.935486 10.072899l11.453522 6.325386l-6.0085754 6.9801865zm-8.670807 24.3208l11.947388 -4.935791l0 9.871597zm8.670807 24.317627l5.4449463 -13.302383l6.0085754 6.980179zm20.935486 10.07608l-4.248749 -13.879288l8.497528 0zm20.93277 -10.07608l-11.450775 -6.3222046l6.0085754 -6.980179zm-35.7359 -24.317627c0 -9.497559 6.627594 -17.196846 14.803131 -17.196846c8.175568 0 14.803162 7.6992874 14.803162 17.196846c0 9.497559 -6.627594 17.196854 -14.803162 17.196854c-8.175537 0 -14.803131 -7.699295 -14.803131 -17.196854z" fill-rule="evenodd"/><path fill="#999999" d="m269.13385 225.48557l0 0c0 -7.6972046 5.993042 -13.937012 13.385834 -13.937012l0 0c3.5501404 0 6.954895 1.4683685 9.46521 4.082062c2.510315 2.6136932 3.9206238 6.1586304 3.9206238 9.85495l0 0c0 7.6971893 -5.993042 13.937012 -13.385834 13.937012l0 0c-7.3927917 0 -13.385834 -6.2398224 -13.385834 -13.937012z" fill-rule="evenodd"/><path stroke="#000000" stroke-width="1.0" stroke-linejoin="round" stroke-linecap="butt" d="m269.13385 225.48557l0 0c0 -7.6972046 5.993042 -13.937012 13.385834 -13.937012l0 0c3.5501404 0 6.954895 1.4683685 9.46521 4.082062c2.510315 2.6136932 3.9206238 6.1586304 3.9206238 9.85495l0 0c0 7.6971893 -5.993042 13.937012 -13.385834 13.937012l0 0c-7.3927917 0 -13.385834 -6.2398224 -13.385834 -13.937012z" fill-rule="evenodd"/></g></svg>